# xmcd CD database file generated by LOLA_Freedb v0.9beta0
# 
# Track frame offsets:
#      150
#      16553
#      33396
#      48948
#      77328
#      93351
#      115649
#      128522
#      165856
#      185719
#      208601
#      254559
# 
# Disc length: 3686 seconds
# 
# Revision: 0 
# Processed by: cddbd v1.5.2PL0 Copyright (c) Steve Scherf et al.
# Submitted via: LOLA_Freedb v0.9beta0
# 
DISCID=850e640c
DTITLE=Matt O'Ree and The Blues Hounds - 88 Miles
DYEAR=2002
DGENRE=
TTITLE0=Matt O'Ree and The Blues Hounds - Tell Me
TTITLE1=Matt O'Ree and The Blues Hounds - Bringing The Blues
TTITLE2=Matt O'Ree and The Blues Hounds - Messin' With The Kid
TTITLE3=Matt O'Ree and The Blues Hounds - Everything I Need
TTITLE4=Matt O'Ree and The Blues Hounds - 88 Miles
TTITLE5=Matt O'Ree and The Blues Hounds - Devil In Me
TTITLE6=Matt O'Ree and The Blues Hounds - What I Had In Mind
TTITLE7=Matt O'Ree and The Blues Hounds - Something To Say
TTITLE8=Matt O'Ree and The Blues Hounds - Better Way
TTITLE9=Matt O'Ree and The Blues Hounds - Killing Floor
TTITLE10=Matt O'Ree and The Blues Hounds - Theresa
TTITLE11=Matt O'Ree and The Blues Hounds - Dust My Broom
EXTD=
EXTT0=
EXTT1=
EXTT2=
EXTT3=
EXTT4=
EXTT5=
EXTT6=
EXTT7=
EXTT8=
EXTT9=
EXTT10=
EXTT11=
PLAYORDER=
